<svg width="196" height="188" viewBox="0 0 196 188" fill="none" xmlns="http://www.w3.org/2000/svg">
<g filter="url(#filter0_d_1_6262)">
<path d="M98.0478 32.1295C97.2936 31.8371 96.4679 32.2851 96.1284 33.0193C94.5483 36.4359 90.8175 38.502 86.9355 37.8175C83.0535 37.133 80.2544 33.9155 79.9382 30.1645C79.8702 29.3585 79.2475 28.6551 78.4389 28.6719C77.6288 28.6887 77.0422 29.4193 77.0094 30.2289C76.8569 33.99 74.2008 37.3262 70.3525 38.1794C66.5055 39.0323 62.6895 37.1326 60.961 33.7903C60.589 33.071 59.745 32.6588 59.004 32.9857C58.2641 33.3121 58.0005 34.2107 58.2791 34.9699C59.5756 38.5023 58.3982 42.5993 55.1703 44.8595C51.9424 47.1197 47.6898 46.8248 44.8139 44.3983C44.1958 43.8768 43.2612 43.8172 42.7014 44.4008C42.1408 44.9853 42.2395 45.9193 42.7882 46.515C45.3375 49.2824 45.8174 53.5179 43.7003 56.8411C41.5824 60.1655 37.5389 61.5203 33.9524 60.3773C33.1806 60.1313 32.2934 60.4326 32.0006 61.188C31.7082 61.9421 32.1562 62.7678 32.8903 63.1073C36.307 64.6874 38.3731 68.4182 37.6886 72.3002C37.0041 76.182 33.7868 78.9811 30.036 79.2975C29.2297 79.3656 28.526 79.9885 28.5428 80.7975C28.5596 81.6078 29.2905 82.1947 30.1004 82.2276C33.8612 82.3804 37.1971 85.0364 38.0502 88.8844C38.9031 92.7314 37.0034 96.5473 33.6614 98.2759C32.942 98.6479 32.5299 99.4919 32.8568 100.233C33.1832 100.973 34.0818 101.236 34.8409 100.958C38.3734 99.6612 42.4704 100.839 44.7306 104.066C46.9907 107.294 46.6959 111.547 44.2695 114.423C43.748 115.041 43.6883 115.976 44.272 116.535C44.8565 117.096 45.7905 116.997 46.3862 116.449C49.1536 113.899 53.3891 113.419 56.7124 115.536C60.0368 117.654 61.3916 121.698 60.2486 125.284C60.0026 126.056 60.3039 126.943 61.0594 127.236C61.8135 127.529 62.6392 127.081 62.9787 126.346C64.5588 122.93 68.2896 120.864 72.1716 121.548C76.0536 122.233 78.8527 125.45 79.169 129.201C79.2369 130.007 79.8596 130.711 80.6683 130.694C81.4783 130.677 82.0649 129.946 82.0978 129.137C82.2503 125.376 84.9064 122.039 88.7547 121.186C92.6016 120.333 96.4175 122.233 98.1461 125.575C98.5182 126.295 99.3623 126.707 100.103 126.38C100.843 126.053 101.107 125.155 100.828 124.395C99.5317 120.863 100.709 116.766 103.937 114.506C107.165 112.245 111.418 112.54 114.294 114.967C114.912 115.488 115.846 115.548 116.406 114.964C116.967 114.38 116.868 113.446 116.319 112.85C113.77 110.082 113.29 105.847 115.407 102.524C117.525 99.1992 121.568 97.8443 125.155 98.9873C125.927 99.2334 126.814 98.932 127.107 98.1765C127.399 97.4223 126.951 96.5965 126.217 96.257C122.801 94.6769 120.734 90.9461 121.419 87.0641C122.103 83.182 125.321 80.3828 129.072 80.0667C129.878 79.9988 130.581 79.3764 130.564 78.568C130.548 77.7583 129.817 77.1719 129.008 77.1391C125.247 76.9869 121.91 74.3307 121.057 70.4822C120.204 66.6352 122.104 62.8192 125.446 61.0907C126.165 60.7186 126.578 59.8745 126.251 59.1334C125.924 58.3934 125.026 58.1298 124.266 58.4085C120.734 59.7051 116.637 58.5277 114.377 55.2997C112.116 52.0718 112.411 47.8191 114.838 44.9431C115.359 44.325 115.419 43.3903 114.835 42.8304C114.251 42.2697 113.317 42.3684 112.721 42.9172C109.953 45.4665 105.718 45.9465 102.395 43.8293C99.0704 41.7114 97.7156 37.6679 98.8586 34.0815C99.1046 33.3095 98.8032 32.4224 98.0478 32.1295Z" fill="url(#paint0_radial_1_6262)"/>
</g>
<g filter="url(#filter1_i_1_6262)">
<circle cx="79.5536" cy="79.6813" r="34.0074" fill="url(#paint1_linear_1_6262)"/>
</g>
<g filter="url(#filter2_ii_1_6262)">
<circle cx="79.5536" cy="79.6813" r="34.0074" fill="url(#paint2_linear_1_6262)"/>
</g>
<g filter="url(#filter3_f_1_6262)">
<ellipse cx="79.5536" cy="65.5115" rx="19.8376" ry="14.1697" fill="url(#paint3_linear_1_6262)" style="mix-blend-mode:soft-light"/>
</g>
<g filter="url(#filter4_f_1_6262)">
<path d="M74.0685 152.626C71.4357 141.783 65.2924 137.265 62.5499 136.362H164.572C160.184 141.331 154.699 148.289 154.699 152.626C154.699 156.963 155.796 164.373 157.99 167.535H70.7775C72.9715 167.083 76.7013 163.469 74.0685 152.626Z" fill="url(#paint4_linear_1_6262)"/>
</g>
<g filter="url(#filter5_d_1_6262)">
<path fill-rule="evenodd" clip-rule="evenodd" d="M164.572 89.6358C164.572 89.6244 164.572 89.6129 164.572 89.6015C164.572 70.0372 148.712 54.1771 129.148 54.1771C113.871 54.1771 100.853 63.8471 95.8807 77.4C94.2747 77.0391 92.6043 76.8487 90.8894 76.8487C78.3682 76.8487 68.2178 86.9991 68.2178 99.5203C68.2178 99.5873 68.2181 99.6542 68.2186 99.7211C58.6046 101.096 51.2141 109.364 51.2141 119.358C51.2141 130.314 60.0957 139.196 71.0517 139.196H156.056L156.07 139.196C170.157 139.196 181.576 127.776 181.576 113.69C181.576 102.585 174.478 93.1372 164.572 89.6358Z" fill="#64748B"/>
</g>
<g filter="url(#filter6_ii_1_6262)">
<path fill-rule="evenodd" clip-rule="evenodd" d="M181.576 113.69C181.576 127.776 170.157 139.196 156.07 139.196C156.066 139.196 156.061 139.196 156.056 139.196H71.0517C60.0957 139.196 51.2141 130.314 51.2141 119.358C51.2141 108.402 60.0957 99.5203 71.0517 99.5203C78.9652 99.5203 85.7965 104.154 88.9803 110.856H130.72C132.13 98.1035 142.942 88.1845 156.07 88.1845C170.157 88.1845 181.576 99.6038 181.576 113.69Z" fill="#F1F5F9"/>
</g>
<g filter="url(#filter7_f_1_6262)">
<circle cx="71.0517" cy="119.358" r="14.1697" fill="url(#paint5_linear_1_6262)" style="mix-blend-mode:soft-light"/>
</g>
<g filter="url(#filter8_i_1_6262)">
<circle cx="90.8894" cy="99.5203" r="22.6716" fill="#F1F5F9"/>
</g>
<g filter="url(#filter9_f_1_6262)">
<ellipse cx="90.8894" cy="96.6864" rx="17.0037" ry="14.1697" fill="url(#paint6_linear_1_6262)" style="mix-blend-mode:soft-light"/>
</g>
<g filter="url(#filter10_f_1_6262)">
<circle cx="158.904" cy="110.856" r="14.1697" fill="url(#paint7_linear_1_6262)" style="mix-blend-mode:soft-light"/>
</g>
<g filter="url(#filter11_i_1_6262)">
<circle cx="129.148" cy="89.6015" r="35.4244" fill="#F1F5F9"/>
</g>
<g filter="url(#filter12_f_1_6262)">
<ellipse cx="127.731" cy="74.0148" rx="19.8376" ry="14.1697" fill="url(#paint8_linear_1_6262)" style="mix-blend-mode:soft-light"/>
</g>
<g filter="url(#filter13_i_1_6262)">
<ellipse cx="116.395" cy="112.273" rx="25.5055" ry="18.4207" fill="url(#paint9_linear_1_6262)"/>
</g>
<g filter="url(#filter14_f_1_6262)">
<ellipse cx="116.395" cy="112.273" rx="19.8376" ry="12.7528" fill="url(#paint10_linear_1_6262)" style="mix-blend-mode:soft-light"/>
</g>
<path fill-rule="evenodd" clip-rule="evenodd" d="M164.572 89.6358C164.572 89.6244 164.572 89.6129 164.572 89.6015C164.572 70.0372 148.712 54.1771 129.148 54.1771C113.871 54.1771 100.853 63.8471 95.8807 77.4C94.2747 77.0391 92.6043 76.8487 90.8894 76.8487C78.3682 76.8487 68.2178 86.9991 68.2178 99.5203C68.2178 99.5873 68.2181 99.6542 68.2186 99.7211C58.6046 101.096 51.2141 109.364 51.2141 119.358C51.2141 130.314 60.0957 139.196 71.0517 139.196H156.056L156.07 139.196C170.157 139.196 181.576 127.776 181.576 113.69C181.576 102.585 174.478 93.1372 164.572 89.6358Z" fill="#1E293B" style="mix-blend-mode:overlay"/>
<path fill-rule="evenodd" clip-rule="evenodd" d="M164.572 89.6358C164.572 89.6244 164.572 89.6129 164.572 89.6015C164.572 70.0372 148.712 54.1771 129.148 54.1771C113.871 54.1771 100.853 63.8471 95.8807 77.4C94.2747 77.0391 92.6043 76.8487 90.8894 76.8487C78.3682 76.8487 68.2178 86.9991 68.2178 99.5203C68.2178 99.5873 68.2181 99.6542 68.2186 99.7211C58.6046 101.096 51.2141 109.364 51.2141 119.358C51.2141 130.314 60.0957 139.196 71.0517 139.196H156.056L156.07 139.196C170.157 139.196 181.576 127.776 181.576 113.69C181.576 102.585 174.478 93.1372 164.572 89.6358Z" fill="#334155" fill-opacity="0.3" style="mix-blend-mode:multiply"/>
<g filter="url(#filter15_dii_1_6262)">
<path fill-rule="evenodd" clip-rule="evenodd" d="M110.727 136.362C110.727 136.362 115.53 137.779 117.812 137.779C120.093 137.779 124.897 136.362 124.897 136.362L121.054 143.524C120.042 145.412 121.409 147.698 123.552 147.698H124.51C126.878 147.698 128.201 150.429 126.734 152.288L109.103 174.62L114.945 157.096C115.557 155.26 114.191 153.365 112.256 153.365L108.991 153.366C107.057 153.366 105.691 151.47 106.302 149.635L110.727 136.362Z" fill="#FCD34D"/>
</g>
<g filter="url(#filter16_f_1_6262)">
<path d="M116.395 130.694C96.3089 130.694 76.7196 136.457 76.7196 139.196H156.07C156.07 136.457 136.481 130.694 116.395 130.694Z" fill="url(#paint11_radial_1_6262)"/>
</g>
<defs>
<filter id="filter0_d_1_6262" x="0.202988" y="0.332108" width="158.701" height="158.701" filterUnits="userSpaceOnUse" color-interpolation-filters="sRGB">
<feFlood flood-opacity="0" result="BackgroundImageFix"/>
<feColorMatrix in="SourceAlpha" type="matrix" values="0 0 0 0 0 0 0 0 0 0 0 0 0 0 0 0 0 0 127 0" result="hardAlpha"/>
<feOffset/>
<feGaussianBlur stdDeviation="14.1697"/>
<feComposite in2="hardAlpha" operator="out"/>
<feColorMatrix type="matrix" values="0 0 0 0 0.980392 0 0 0 0 0.8 0 0 0 0 0.0823529 0 0 0 0.7 0"/>
<feBlend mode="normal" in2="BackgroundImageFix" result="effect1_dropShadow_1_6262"/>
<feBlend mode="normal" in="SourceGraphic" in2="effect1_dropShadow_1_6262" result="shape"/>
</filter>
<filter id="filter1_i_1_6262" x="45.5462" y="42.84" width="68.0148" height="70.8488" filterUnits="userSpaceOnUse" color-interpolation-filters="sRGB">
<feFlood flood-opacity="0" result="BackgroundImageFix"/>
<feBlend mode="normal" in="SourceGraphic" in2="BackgroundImageFix" result="shape"/>
<feColorMatrix in="SourceAlpha" type="matrix" values="0 0 0 0 0 0 0 0 0 0 0 0 0 0 0 0 0 0 127 0" result="hardAlpha"/>
<feOffset dy="-2.83395"/>
<feGaussianBlur stdDeviation="2.83395"/>
<feComposite in2="hardAlpha" operator="arithmetic" k2="-1" k3="1"/>
<feColorMatrix type="matrix" values="0 0 0 0 0.992157 0 0 0 0 0.878431 0 0 0 0 0.278431 0 0 0 1 0"/>
<feBlend mode="normal" in2="shape" result="effect1_innerShadow_1_6262"/>
</filter>
<filter id="filter2_ii_1_6262" x="45.5462" y="42.84" width="68.0148" height="73.6827" filterUnits="userSpaceOnUse" color-interpolation-filters="sRGB">
<feFlood flood-opacity="0" result="BackgroundImageFix"/>
<feBlend mode="normal" in="SourceGraphic" in2="BackgroundImageFix" result="shape"/>
<feColorMatrix in="SourceAlpha" type="matrix" values="0 0 0 0 0 0 0 0 0 0 0 0 0 0 0 0 0 0 127 0" result="hardAlpha"/>
<feOffset dy="-2.83395"/>
<feGaussianBlur stdDeviation="4.25092"/>
<feComposite in2="hardAlpha" operator="arithmetic" k2="-1" k3="1"/>
<feColorMatrix type="matrix" values="0 0 0 0 0.992157 0 0 0 0 0.878431 0 0 0 0 0.278431 0 0 0 1 0"/>
<feBlend mode="normal" in2="shape" result="effect1_innerShadow_1_6262"/>
<feColorMatrix in="SourceAlpha" type="matrix" values="0 0 0 0 0 0 0 0 0 0 0 0 0 0 0 0 0 0 127 0" result="hardAlpha"/>
<feOffset dy="2.83395"/>
<feGaussianBlur stdDeviation="1.41697"/>
<feComposite in2="hardAlpha" operator="arithmetic" k2="-1" k3="1"/>
<feColorMatrix type="matrix" values="0 0 0 0 0.996078 0 0 0 0 0.941176 0 0 0 0 0.541176 0 0 0 1 0"/>
<feBlend mode="normal" in2="effect1_innerShadow_1_6262" result="effect2_innerShadow_1_6262"/>
</filter>
<filter id="filter3_f_1_6262" x="54.048" y="45.6739" width="51.0111" height="39.6753" filterUnits="userSpaceOnUse" color-interpolation-filters="sRGB">
<feFlood flood-opacity="0" result="BackgroundImageFix"/>
<feBlend mode="normal" in="SourceGraphic" in2="BackgroundImageFix" result="shape"/>
<feGaussianBlur stdDeviation="2.83395" result="effect1_foregroundBlur_1_6262"/>
</filter>
<filter id="filter4_f_1_6262" x="56.882" y="130.694" width="113.358" height="42.5092" filterUnits="userSpaceOnUse" color-interpolation-filters="sRGB">
<feFlood flood-opacity="0" result="BackgroundImageFix"/>
<feBlend mode="normal" in="SourceGraphic" in2="BackgroundImageFix" result="shape"/>
<feGaussianBlur stdDeviation="2.83395" result="effect1_foregroundBlur_1_6262"/>
</filter>
<filter id="filter5_d_1_6262" x="39.8783" y="48.5092" width="153.033" height="107.69" filterUnits="userSpaceOnUse" color-interpolation-filters="sRGB">
<feFlood flood-opacity="0" result="BackgroundImageFix"/>
<feColorMatrix in="SourceAlpha" type="matrix" values="0 0 0 0 0 0 0 0 0 0 0 0 0 0 0 0 0 0 127 0" result="hardAlpha"/>
<feOffset dy="5.6679"/>
<feGaussianBlur stdDeviation="5.6679"/>
<feComposite in2="hardAlpha" operator="out"/>
<feColorMatrix type="matrix" values="0 0 0 0 0.278431 0 0 0 0 0.333333 0 0 0 0 0.411765 0 0 0 0.4 0"/>
<feBlend mode="normal" in2="BackgroundImageFix" result="effect1_dropShadow_1_6262"/>
<feBlend mode="normal" in="SourceGraphic" in2="effect1_dropShadow_1_6262" result="shape"/>
</filter>
<filter id="filter6_ii_1_6262" x="51.2141" y="82.5166" width="130.362" height="62.3469" filterUnits="userSpaceOnUse" color-interpolation-filters="sRGB">
<feFlood flood-opacity="0" result="BackgroundImageFix"/>
<feBlend mode="normal" in="SourceGraphic" in2="BackgroundImageFix" result="shape"/>
<feColorMatrix in="SourceAlpha" type="matrix" values="0 0 0 0 0 0 0 0 0 0 0 0 0 0 0 0 0 0 127 0" result="hardAlpha"/>
<feOffset dy="5.6679"/>
<feGaussianBlur stdDeviation="2.83395"/>
<feComposite in2="hardAlpha" operator="arithmetic" k2="-1" k3="1"/>
<feColorMatrix type="matrix" values="0 0 0 0 0.796078 0 0 0 0 0.835294 0 0 0 0 0.882353 0 0 0 1 0"/>
<feBlend mode="normal" in2="shape" result="effect1_innerShadow_1_6262"/>
<feColorMatrix in="SourceAlpha" type="matrix" values="0 0 0 0 0 0 0 0 0 0 0 0 0 0 0 0 0 0 127 0" result="hardAlpha"/>
<feOffset dy="-5.6679"/>
<feGaussianBlur stdDeviation="2.83395"/>
<feComposite in2="hardAlpha" operator="arithmetic" k2="-1" k3="1"/>
<feColorMatrix type="matrix" values="0 0 0 0 0.796078 0 0 0 0 0.835294 0 0 0 0 0.882353 0 0 0 0.6 0"/>
<feBlend mode="normal" in2="effect1_innerShadow_1_6262" result="effect2_innerShadow_1_6262"/>
</filter>
<filter id="filter7_f_1_6262" x="51.2141" y="99.5203" width="39.6753" height="39.6753" filterUnits="userSpaceOnUse" color-interpolation-filters="sRGB">
<feFlood flood-opacity="0" result="BackgroundImageFix"/>
<feBlend mode="normal" in="SourceGraphic" in2="BackgroundImageFix" result="shape"/>
<feGaussianBlur stdDeviation="2.83395" result="effect1_foregroundBlur_1_6262"/>
</filter>
<filter id="filter8_i_1_6262" x="68.2178" y="76.8487" width="45.3432" height="51.0111" filterUnits="userSpaceOnUse" color-interpolation-filters="sRGB">
<feFlood flood-opacity="0" result="BackgroundImageFix"/>
<feBlend mode="normal" in="SourceGraphic" in2="BackgroundImageFix" result="shape"/>
<feColorMatrix in="SourceAlpha" type="matrix" values="0 0 0 0 0 0 0 0 0 0 0 0 0 0 0 0 0 0 127 0" result="hardAlpha"/>
<feOffset dy="5.6679"/>
<feGaussianBlur stdDeviation="2.83395"/>
<feComposite in2="hardAlpha" operator="arithmetic" k2="-1" k3="1"/>
<feColorMatrix type="matrix" values="0 0 0 0 0.796078 0 0 0 0 0.835294 0 0 0 0 0.882353 0 0 0 1 0"/>
<feBlend mode="normal" in2="shape" result="effect1_innerShadow_1_6262"/>
</filter>
<filter id="filter9_f_1_6262" x="68.2178" y="76.8487" width="45.3432" height="39.6753" filterUnits="userSpaceOnUse" color-interpolation-filters="sRGB">
<feFlood flood-opacity="0" result="BackgroundImageFix"/>
<feBlend mode="normal" in="SourceGraphic" in2="BackgroundImageFix" result="shape"/>
<feGaussianBlur stdDeviation="2.83395" result="effect1_foregroundBlur_1_6262"/>
</filter>
<filter id="filter10_f_1_6262" x="139.067" y="91.0185" width="39.6753" height="39.6753" filterUnits="userSpaceOnUse" color-interpolation-filters="sRGB">
<feFlood flood-opacity="0" result="BackgroundImageFix"/>
<feBlend mode="normal" in="SourceGraphic" in2="BackgroundImageFix" result="shape"/>
<feGaussianBlur stdDeviation="2.83395" result="effect1_foregroundBlur_1_6262"/>
</filter>
<filter id="filter11_i_1_6262" x="93.7233" y="54.1771" width="70.8487" height="76.5166" filterUnits="userSpaceOnUse" color-interpolation-filters="sRGB">
<feFlood flood-opacity="0" result="BackgroundImageFix"/>
<feBlend mode="normal" in="SourceGraphic" in2="BackgroundImageFix" result="shape"/>
<feColorMatrix in="SourceAlpha" type="matrix" values="0 0 0 0 0 0 0 0 0 0 0 0 0 0 0 0 0 0 127 0" result="hardAlpha"/>
<feOffset dy="5.6679"/>
<feGaussianBlur stdDeviation="2.83395"/>
<feComposite in2="hardAlpha" operator="arithmetic" k2="-1" k3="1"/>
<feColorMatrix type="matrix" values="0 0 0 0 0.796078 0 0 0 0 0.835294 0 0 0 0 0.882353 0 0 0 1 0"/>
<feBlend mode="normal" in2="shape" result="effect1_innerShadow_1_6262"/>
</filter>
<filter id="filter12_f_1_6262" x="102.225" y="54.1771" width="51.0111" height="39.6753" filterUnits="userSpaceOnUse" color-interpolation-filters="sRGB">
<feFlood flood-opacity="0" result="BackgroundImageFix"/>
<feBlend mode="normal" in="SourceGraphic" in2="BackgroundImageFix" result="shape"/>
<feGaussianBlur stdDeviation="2.83395" result="effect1_foregroundBlur_1_6262"/>
</filter>
<filter id="filter13_i_1_6262" x="90.8894" y="93.8524" width="51.0111" height="42.5092" filterUnits="userSpaceOnUse" color-interpolation-filters="sRGB">
<feFlood flood-opacity="0" result="BackgroundImageFix"/>
<feBlend mode="normal" in="SourceGraphic" in2="BackgroundImageFix" result="shape"/>
<feColorMatrix in="SourceAlpha" type="matrix" values="0 0 0 0 0 0 0 0 0 0 0 0 0 0 0 0 0 0 127 0" result="hardAlpha"/>
<feOffset dy="5.6679"/>
<feGaussianBlur stdDeviation="2.83395"/>
<feComposite in2="hardAlpha" operator="arithmetic" k2="-1" k3="1"/>
<feColorMatrix type="matrix" values="0 0 0 0 0.796078 0 0 0 0 0.835294 0 0 0 0 0.882353 0 0 0 0.6 0"/>
<feBlend mode="normal" in2="shape" result="effect1_innerShadow_1_6262"/>
</filter>
<filter id="filter14_f_1_6262" x="90.8894" y="93.8524" width="51.0111" height="36.8414" filterUnits="userSpaceOnUse" color-interpolation-filters="sRGB">
<feFlood flood-opacity="0" result="BackgroundImageFix"/>
<feBlend mode="normal" in="SourceGraphic" in2="BackgroundImageFix" result="shape"/>
<feGaussianBlur stdDeviation="2.83395" result="effect1_foregroundBlur_1_6262"/>
</filter>
<filter id="filter15_dii_1_6262" x="100.487" y="130.694" width="32.5301" height="49.5941" filterUnits="userSpaceOnUse" color-interpolation-filters="sRGB">
<feFlood flood-opacity="0" result="BackgroundImageFix"/>
<feColorMatrix in="SourceAlpha" type="matrix" values="0 0 0 0 0 0 0 0 0 0 0 0 0 0 0 0 0 0 127 0" result="hardAlpha"/>
<feOffset/>
<feGaussianBlur stdDeviation="2.83395"/>
<feComposite in2="hardAlpha" operator="out"/>
<feColorMatrix type="matrix" values="0 0 0 0 0.988235 0 0 0 0 0.827451 0 0 0 0 0.301961 0 0 0 1 0"/>
<feBlend mode="normal" in2="BackgroundImageFix" result="effect1_dropShadow_1_6262"/>
<feBlend mode="normal" in="SourceGraphic" in2="effect1_dropShadow_1_6262" result="shape"/>
<feColorMatrix in="SourceAlpha" type="matrix" values="0 0 0 0 0 0 0 0 0 0 0 0 0 0 0 0 0 0 127 0" result="hardAlpha"/>
<feOffset dy="11.3358"/>
<feGaussianBlur stdDeviation="2.83395"/>
<feComposite in2="hardAlpha" operator="arithmetic" k2="-1" k3="1"/>
<feColorMatrix type="matrix" values="0 0 0 0 1 0 0 0 0 0.9575 0 0 0 0 0.7875 0 0 0 1 0"/>
<feBlend mode="normal" in2="shape" result="effect2_innerShadow_1_6262"/>
<feColorMatrix in="SourceAlpha" type="matrix" values="0 0 0 0 0 0 0 0 0 0 0 0 0 0 0 0 0 0 127 0" result="hardAlpha"/>
<feOffset/>
<feGaussianBlur stdDeviation="1.41697"/>
<feComposite in2="hardAlpha" operator="arithmetic" k2="-1" k3="1"/>
<feColorMatrix type="matrix" values="0 0 0 0 0.960784 0 0 0 0 0.619608 0 0 0 0 0.0431373 0 0 0 1 0"/>
<feBlend mode="normal" in2="effect2_innerShadow_1_6262" result="effect3_innerShadow_1_6262"/>
</filter>
<filter id="filter16_f_1_6262" x="71.0517" y="125.026" width="90.6864" height="19.8377" filterUnits="userSpaceOnUse" color-interpolation-filters="sRGB">
<feFlood flood-opacity="0" result="BackgroundImageFix"/>
<feBlend mode="normal" in="SourceGraphic" in2="BackgroundImageFix" result="shape"/>
<feGaussianBlur stdDeviation="2.83395" result="effect1_foregroundBlur_1_6262"/>
</filter>
<radialGradient id="paint0_radial_1_6262" cx="0" cy="0" r="1" gradientUnits="userSpaceOnUse" gradientTransform="translate(79.5536 45.6739) rotate(90) scale(85.0185 85.0183)">
<stop stop-color="#FACC15"/>
<stop offset="1" stop-color="#D97706"/>
</radialGradient>
<linearGradient id="paint1_linear_1_6262" x1="79.5536" y1="45.6739" x2="79.5536" y2="113.689" gradientUnits="userSpaceOnUse">
<stop stop-color="#FEF08A"/>
<stop offset="1" stop-color="#F59E0B"/>
</linearGradient>
<linearGradient id="paint2_linear_1_6262" x1="79.5536" y1="45.6739" x2="79.5536" y2="113.689" gradientUnits="userSpaceOnUse">
<stop stop-color="#FFF28F"/>
<stop offset="1" stop-color="#F79B00"/>
</linearGradient>
<linearGradient id="paint3_linear_1_6262" x1="79.5536" y1="51.3418" x2="79.5536" y2="79.6813" gradientUnits="userSpaceOnUse">
<stop stop-color="#FEF9C3"/>
<stop offset="1" stop-color="#FEF9C3" stop-opacity="0"/>
<stop offset="1" stop-color="#FEF9C3" stop-opacity="0.2"/>
</linearGradient>
<linearGradient id="paint4_linear_1_6262" x1="113.561" y1="136.362" x2="113.561" y2="167.535" gradientUnits="userSpaceOnUse">
<stop stop-color="#94A3B8"/>
<stop offset="1" stop-color="#94A3B8" stop-opacity="0"/>
</linearGradient>
<linearGradient id="paint5_linear_1_6262" x1="71.0517" y1="105.188" x2="71.0517" y2="133.528" gradientUnits="userSpaceOnUse">
<stop stop-color="white"/>
<stop offset="1" stop-color="#F3F3F3" stop-opacity="0.2"/>
</linearGradient>
<linearGradient id="paint6_linear_1_6262" x1="90.8894" y1="82.5166" x2="90.8894" y2="110.856" gradientUnits="userSpaceOnUse">
<stop stop-color="white"/>
<stop offset="1" stop-color="#F3F3F3" stop-opacity="0.2"/>
</linearGradient>
<linearGradient id="paint7_linear_1_6262" x1="158.904" y1="96.6864" x2="158.904" y2="125.026" gradientUnits="userSpaceOnUse">
<stop stop-color="white"/>
<stop offset="1" stop-color="#F3F3F3" stop-opacity="0.2"/>
</linearGradient>
<linearGradient id="paint8_linear_1_6262" x1="127.731" y1="59.845" x2="127.731" y2="88.1845" gradientUnits="userSpaceOnUse">
<stop stop-color="white"/>
<stop offset="1" stop-color="#F3F3F3" stop-opacity="0.2"/>
</linearGradient>
<linearGradient id="paint9_linear_1_6262" x1="116.395" y1="93.8524" x2="116.395" y2="130.694" gradientUnits="userSpaceOnUse">
<stop stop-color="#F1F5F9"/>
<stop offset="0.650321" stop-color="#F1F5F9" stop-opacity="0"/>
</linearGradient>
<linearGradient id="paint10_linear_1_6262" x1="116.395" y1="99.5203" x2="116.395" y2="125.026" gradientUnits="userSpaceOnUse">
<stop stop-color="white"/>
<stop offset="1" stop-color="#F3F3F3" stop-opacity="0.2"/>
</linearGradient>
<radialGradient id="paint11_radial_1_6262" cx="0" cy="0" r="1" gradientUnits="userSpaceOnUse" gradientTransform="translate(116.395 140.613) rotate(-90) scale(17.0037 38.0883)">
<stop offset="0.28125" stop-color="#FEF08A"/>
<stop offset="1" stop-color="#FEF08A" stop-opacity="0"/>
</radialGradient>
</defs>
</svg>
