<svg width="182" height="182" viewBox="0 0 182 182" fill="none" xmlns="http://www.w3.org/2000/svg">
<g filter="url(#filter0_d_1_6261)">
<path d="M109.181 43.1332C108.426 42.8408 107.601 43.2888 107.261 44.023C105.681 47.4396 101.95 49.5057 98.0684 48.8212C94.1864 48.1367 91.3872 44.9192 91.071 41.1682C91.003 40.3622 90.3803 39.6588 89.5717 39.6756C88.7616 39.6924 88.1751 40.423 88.1422 41.2326C87.9897 44.9936 85.3336 48.3299 81.4853 49.1831C77.6383 50.0359 73.8224 48.1362 72.0938 44.794C71.7218 44.0747 70.8778 43.6625 70.1368 43.9894C69.3969 44.3158 69.1333 45.2144 69.412 45.9736C70.7084 49.506 69.531 53.603 66.3032 55.8632C63.0753 58.1233 58.8226 57.8285 55.9467 55.402C55.3286 54.8805 54.3941 54.8209 53.8343 55.4045C53.2737 55.989 53.3723 56.923 53.921 57.5187C56.4703 60.2861 56.9503 64.5216 54.8331 67.8448C52.7152 71.1692 48.6717 72.524 45.0853 71.381C44.3134 71.135 43.4263 71.4363 43.1334 72.1917C42.841 72.9458 43.289 73.7715 44.0231 74.111C47.4398 75.6911 49.5059 79.4219 48.8214 83.3039C48.1369 87.1857 44.9196 89.9848 41.1688 90.3012C40.3625 90.3692 39.6588 90.9922 39.6756 91.8012C39.6924 92.6115 40.4233 93.1983 41.2332 93.2313C44.994 93.3841 48.3299 96.0401 49.183 99.8881C50.0359 103.735 48.1363 107.551 44.7942 109.28C44.0748 109.652 43.6627 110.496 43.9896 111.237C44.316 111.976 45.2146 112.24 45.9737 111.961C49.5062 110.665 53.6032 111.842 55.8634 115.07C58.1236 118.298 57.8287 122.551 55.4023 125.427C54.8808 126.045 54.8211 126.979 55.4048 127.539C55.9893 128.1 56.9233 128.001 57.519 127.452C60.2864 124.903 64.5219 124.423 67.8452 126.54C71.1696 128.658 72.5245 132.701 71.3814 136.288C71.1354 137.06 71.4367 137.947 72.1922 138.24C72.9463 138.532 73.772 138.084 74.1115 137.35C75.6917 133.933 79.4224 131.867 83.3044 132.552C87.1864 133.236 89.9855 136.454 90.3018 140.205C90.3698 141.011 90.9924 141.714 91.8011 141.697C92.6112 141.681 93.1978 140.95 93.2306 140.14C93.3832 136.379 96.0392 133.043 99.8875 132.19C103.734 131.337 107.55 133.237 109.279 136.579C109.651 137.298 110.495 137.71 111.236 137.384C111.976 137.057 112.24 136.158 111.961 135.399C110.664 131.867 111.842 127.77 115.07 125.509C118.298 123.249 122.55 123.544 125.426 125.97C126.045 126.492 126.979 126.552 127.539 125.968C128.1 125.383 128.001 124.449 127.452 123.854C124.903 121.086 124.423 116.851 126.54 113.527C128.658 110.203 132.701 108.848 136.288 109.991C137.06 110.237 137.947 109.936 138.24 109.18C138.532 108.426 138.084 107.6 137.35 107.261C133.933 105.681 131.867 101.95 132.552 98.0678C133.236 94.1857 136.454 91.3865 140.205 91.0704C141.011 91.0025 141.714 90.3801 141.697 89.5717C141.68 88.762 140.95 88.1756 140.141 88.1428C136.379 87.9906 133.043 85.3344 132.19 81.4859C131.337 77.6389 133.237 73.8229 136.579 72.0944C137.298 71.7223 137.71 70.8782 137.383 70.1371C137.057 69.3971 136.158 69.1335 135.399 69.4122C131.867 70.7088 127.77 69.5314 125.509 66.3034C123.249 63.0755 123.544 58.8228 125.971 55.9468C126.492 55.3286 126.552 54.394 125.968 53.8341C125.384 53.2734 124.449 53.3721 123.854 53.9209C121.086 56.4702 116.851 56.9501 113.528 54.833C110.203 52.7151 108.848 48.6716 109.991 45.0852C110.237 44.3132 109.936 43.426 109.181 43.1332Z" fill="url(#paint0_radial_1_6261)"/>
</g>
<g filter="url(#filter1_i_1_6261)">
<circle cx="90.6863" cy="90.685" r="34.0074" fill="url(#paint1_linear_1_6261)"/>
</g>
<g filter="url(#filter2_ii_1_6261)">
<circle cx="90.6863" cy="90.685" r="34.0074" fill="url(#paint2_linear_1_6261)"/>
</g>
<g filter="url(#filter3_f_1_6261)">
<ellipse cx="90.6864" cy="76.5152" rx="19.8376" ry="14.1697" fill="url(#paint3_linear_1_6261)" style="mix-blend-mode:soft-light"/>
</g>
<defs>
<filter id="filter0_d_1_6261" x="11.3358" y="11.3358" width="158.701" height="158.701" filterUnits="userSpaceOnUse" color-interpolation-filters="sRGB">
<feFlood flood-opacity="0" result="BackgroundImageFix"/>
<feColorMatrix in="SourceAlpha" type="matrix" values="0 0 0 0 0 0 0 0 0 0 0 0 0 0 0 0 0 0 127 0" result="hardAlpha"/>
<feOffset/>
<feGaussianBlur stdDeviation="14.1697"/>
<feComposite in2="hardAlpha" operator="out"/>
<feColorMatrix type="matrix" values="0 0 0 0 0.980392 0 0 0 0 0.8 0 0 0 0 0.0823529 0 0 0 0.7 0"/>
<feBlend mode="normal" in2="BackgroundImageFix" result="effect1_dropShadow_1_6261"/>
<feBlend mode="normal" in="SourceGraphic" in2="effect1_dropShadow_1_6261" result="shape"/>
</filter>
<filter id="filter1_i_1_6261" x="56.679" y="53.8437" width="68.0148" height="70.8487" filterUnits="userSpaceOnUse" color-interpolation-filters="sRGB">
<feFlood flood-opacity="0" result="BackgroundImageFix"/>
<feBlend mode="normal" in="SourceGraphic" in2="BackgroundImageFix" result="shape"/>
<feColorMatrix in="SourceAlpha" type="matrix" values="0 0 0 0 0 0 0 0 0 0 0 0 0 0 0 0 0 0 127 0" result="hardAlpha"/>
<feOffset dy="-2.83395"/>
<feGaussianBlur stdDeviation="2.83395"/>
<feComposite in2="hardAlpha" operator="arithmetic" k2="-1" k3="1"/>
<feColorMatrix type="matrix" values="0 0 0 0 0.992157 0 0 0 0 0.878431 0 0 0 0 0.278431 0 0 0 1 0"/>
<feBlend mode="normal" in2="shape" result="effect1_innerShadow_1_6261"/>
</filter>
<filter id="filter2_ii_1_6261" x="56.679" y="53.8437" width="68.0148" height="73.6827" filterUnits="userSpaceOnUse" color-interpolation-filters="sRGB">
<feFlood flood-opacity="0" result="BackgroundImageFix"/>
<feBlend mode="normal" in="SourceGraphic" in2="BackgroundImageFix" result="shape"/>
<feColorMatrix in="SourceAlpha" type="matrix" values="0 0 0 0 0 0 0 0 0 0 0 0 0 0 0 0 0 0 127 0" result="hardAlpha"/>
<feOffset dy="-2.83395"/>
<feGaussianBlur stdDeviation="4.25092"/>
<feComposite in2="hardAlpha" operator="arithmetic" k2="-1" k3="1"/>
<feColorMatrix type="matrix" values="0 0 0 0 0.992157 0 0 0 0 0.878431 0 0 0 0 0.278431 0 0 0 1 0"/>
<feBlend mode="normal" in2="shape" result="effect1_innerShadow_1_6261"/>
<feColorMatrix in="SourceAlpha" type="matrix" values="0 0 0 0 0 0 0 0 0 0 0 0 0 0 0 0 0 0 127 0" result="hardAlpha"/>
<feOffset dy="2.83395"/>
<feGaussianBlur stdDeviation="1.41697"/>
<feComposite in2="hardAlpha" operator="arithmetic" k2="-1" k3="1"/>
<feColorMatrix type="matrix" values="0 0 0 0 0.996078 0 0 0 0 0.941176 0 0 0 0 0.541176 0 0 0 1 0"/>
<feBlend mode="normal" in2="effect1_innerShadow_1_6261" result="effect2_innerShadow_1_6261"/>
</filter>
<filter id="filter3_f_1_6261" x="65.1809" y="56.6776" width="51.0111" height="39.6753" filterUnits="userSpaceOnUse" color-interpolation-filters="sRGB">
<feFlood flood-opacity="0" result="BackgroundImageFix"/>
<feBlend mode="normal" in="SourceGraphic" in2="BackgroundImageFix" result="shape"/>
<feGaussianBlur stdDeviation="2.83395" result="effect1_foregroundBlur_1_6261"/>
</filter>
<radialGradient id="paint0_radial_1_6261" cx="0" cy="0" r="1" gradientUnits="userSpaceOnUse" gradientTransform="translate(90.6864 56.6776) rotate(90) scale(85.0185 85.0183)">
<stop stop-color="#FACC15"/>
<stop offset="1" stop-color="#D97706"/>
</radialGradient>
<linearGradient id="paint1_linear_1_6261" x1="90.6863" y1="56.6776" x2="90.6863" y2="124.692" gradientUnits="userSpaceOnUse">
<stop stop-color="#FEF08A"/>
<stop offset="1" stop-color="#F59E0B"/>
</linearGradient>
<linearGradient id="paint2_linear_1_6261" x1="90.6863" y1="56.6776" x2="90.6863" y2="124.692" gradientUnits="userSpaceOnUse">
<stop stop-color="#FFF28F"/>
<stop offset="1" stop-color="#F79B00"/>
</linearGradient>
<linearGradient id="paint3_linear_1_6261" x1="90.6864" y1="62.3455" x2="90.6864" y2="90.685" gradientUnits="userSpaceOnUse">
<stop stop-color="#FEF9C3"/>
<stop offset="1" stop-color="#FEF9C3" stop-opacity="0"/>
<stop offset="1" stop-color="#FEF9C3" stop-opacity="0.2"/>
</linearGradient>
</defs>
</svg>
